custom-analysis
version=1
nRows=4
nColumns=98
inDegrees=no

This file contains tibia displacement and acting force.

Units are S.I. units (seconds, meters, Newtons, ...)
Angles are in degrees.

endheader
time	APT	SIT	knee_angle	aACL_R_force	pACL_R_force	aPCL_R_force	pPCL_R_force	aMCL_R_force	mMCL_R_force	pMCL_R_force	aLCL_R_force	mLCL_R_force	pLCL_R_force	aPCL_L_force	pPCL_L_force	aMCL_L_force	aLCL_L_force	aACL_R_length	pACL_R_length	aPCL_R_length	pPCL_R_length	aMCL_R_length	mMCL_R_length	pMCL_R_length	aLCL_R_length	mLCL_R_length	pLCL_R_length	aPCL_L_length	pPCL_L_length	aMCL_L_length	aLCL_L_length	aACL_R_strain	pACL_R_strain	aPCL_R_strain	pPCL_R_strain	aMCL_R_strain	mMCL_R_strain	pMCL_R_strain	aLCL_R_strain	mLCL_R_strain	pLCL_R_strain	aPCL_L_strain	pPCL_L_strain	aMCL_L_strain	aLCL_L_strain	femur_lat_meniscii_r.femur_lat_r.force.X	femur_lat_meniscii_r.femur_lat_r.force.Y	femur_lat_meniscii_r.femur_lat_r.force.Z	femur_lat_meniscii_r.femur_lat_r.torque.X	femur_lat_meniscii_r.femur_lat_r.torque.Y	femur_lat_meniscii_r.femur_lat_r.torque.Z	femur_lat_meniscii_r.meniscus_lat_r.force.X	femur_lat_meniscii_r.meniscus_lat_r.force.Y	femur_lat_meniscii_r.meniscus_lat_r.force.Z	femur_lat_meniscii_r.meniscus_lat_r.torque.X	femur_lat_meniscii_r.meniscus_lat_r.torque.Y	femur_lat_meniscii_r.meniscus_lat_r.torque.Z	femur_med_meniscii_r.femur_med_r.force.X	femur_med_meniscii_r.femur_med_r.force.Y	femur_med_meniscii_r.femur_med_r.force.Z	femur_med_meniscii_r.femur_med_r.torque.X	femur_med_meniscii_r.femur_med_r.torque.Y	femur_med_meniscii_r.femur_med_r.torque.Z	femur_med_meniscii_r.meniscus_med_r.force.X	femur_med_meniscii_r.meniscus_med_r.force.Y	femur_med_meniscii_r.meniscus_med_r.force.Z	femur_med_meniscii_r.meniscus_med_r.torque.X	femur_med_meniscii_r.meniscus_med_r.torque.Y	femur_med_meniscii_r.meniscus_med_r.torque.Z	femur_med_tibia_r.tibia_upper_r.force.X	femur_med_tibia_r.tibia_upper_r.force.Y	femur_med_tibia_r.tibia_upper_r.force.Z	femur_med_tibia_r.tibia_upper_r.torque.X	femur_med_tibia_r.tibia_upper_r.torque.Y	femur_med_tibia_r.tibia_upper_r.torque.Z	femur_med_tibia_r.femur_med_r.force.X	femur_med_tibia_r.femur_med_r.force.Y	femur_med_tibia_r.femur_med_r.force.Z	femur_med_tibia_r.femur_med_r.torque.X	femur_med_tibia_r.femur_med_r.torque.Y	femur_med_tibia_r.femur_med_r.torque.Z	femur_lat_tibia_r.tibia_upper_r.force.X	femur_lat_tibia_r.tibia_upper_r.force.Y	femur_lat_tibia_r.tibia_upper_r.force.Z	femur_lat_tibia_r.tibia_upper_r.torque.X	femur_lat_tibia_r.tibia_upper_r.torque.Y	femur_lat_tibia_r.tibia_upper_r.torque.Z	femur_lat_tibia_r.femur_lat_r.force.X	femur_lat_tibia_r.femur_lat_r.force.Y	femur_lat_tibia_r.femur_lat_r.force.Z	femur_lat_tibia_r.femur_lat_r.torque.X	femur_lat_tibia_r.femur_lat_r.torque.Y	femur_lat_tibia_r.femur_lat_r.torque.Z	femur_lat_meniscii_force_r	femur_med_meniscii_force_r	femur_lat_tibia_force_r	femur_med_tibia_force_r
      0.16711579	      0.01161659	      0.01501912	     54.30354960	     31.01051637	     20.61367177	    785.13229667	    506.92931982	      0.00000000	      0.00000000	      0.00000000	    -13.32032003	      0.00000000	      0.00000000	      0.00000000	      0.00000000	      0.00000001	      0.00000000	      0.03267616	      0.02600018	      0.03613264	      0.03328181	      0.05884834	      0.05855754	      0.05563910	      0.05618942	      0.05155114	      0.04679188	      0.01525851	      0.01651186	      0.06550154	      0.04489616	      0.05388267	      0.03757096	      0.16199680	      0.11355841	     -0.01963546	     -0.02067046	     -0.05259669	      0.00379118	     -0.08465165	     -0.10604763	      0.00000079	     -0.32847694	      0.00000060	     -0.00000086	    402.03043476	    302.21249049	    101.87411995	    -48.34255392	     10.02337201	    161.12791235	   -402.03043476	   -302.21249049	   -101.87411995	      9.76577571	    -12.79426634	     -0.67069514	    745.24752089	    517.83315327	    -42.71537562	     27.40114186	    -14.34602762	    296.44409044	   -745.24752089	   -517.83315327	     42.71537562	     -9.73038528	     13.38733326	      0.23230835	   -127.45120628	   -288.06259110	    105.20082587	     -6.49281646	      4.14343783	      3.55969018	    127.45120628	    288.06259110	   -105.20082587	     47.72195935	     -2.54118955	     50.77687740	      0.00000000	      0.00000000	      0.00000000	      0.00000000	      0.00000000	      0.00000000	      0.00000000	      0.00000000	      0.00000000	      0.00000000	      0.00000000	      0.00000000	    513.16585643	    908.49856650	      0.00000000	    332.10100894
      0.16744340	      0.01164067	      0.01507131	     54.45717773	     31.28652492	     20.89004426	    788.26333495	    508.86818348	      0.00000000	      0.00000000	      0.00000000	    -13.01087882	      0.00000000	      0.00000000	      0.00000000	      0.00000000	      0.00000001	      0.00000000	      0.03268393	      0.02600835	      0.03614998	      0.03329333	      0.05886125	      0.05855971	      0.05563338	      0.05618469	      0.05153983	      0.04677525	      0.01525851	      0.01651186	      0.06550154	      0.04489616	      0.05413317	      0.03789689	      0.16255442	      0.11394381	     -0.01942047	     -0.02063416	     -0.05269406	      0.00370663	     -0.08485242	     -0.10636529	      0.00000079	     -0.32847694	      0.00000060	     -0.00000086	    404.83832634	    307.17901545	    103.91497062	    -49.28712062	     10.10741958	    162.20165815	   -404.83832634	   -307.17901545	   -103.91497062	      9.92838806	    -12.92407172	     -0.53929371	    747.06994115	    507.82637052	    -39.53223921	     25.80344840	    -14.30790159	    297.26644715	   -747.06994115	   -507.82637052	     39.53223921	     -9.38565790	     13.29566783	     -0.01035905	   -128.46707320	   -286.82182983	    104.79462101	     -6.45958870	      4.15301582	      3.53087071	    128.46707320	    286.82182983	   -104.79462101	     47.53114809	     -2.55372414	     51.19574346	      0.00000000	      0.00000000	      0.00000000	      0.00000000	      0.00000000	      0.00000000	      0.00000000	      0.00000000	      0.00000000	      0.00000000	      0.00000000	      0.00000000	    518.70158967	    904.19241177	      0.00000000	    331.28909362
      0.16808325	      0.01168739	      0.01517305	     54.75714286	     31.88769106	     21.55422207	    794.34026884	    512.55307084	      0.00000000	      0.00000000	      0.00000000	    -12.67090761	      0.00000000	      0.00000000	      0.00000000	      0.00000000	      0.00000001	      0.00000000	      0.03269932	      0.02602461	      0.03618395	      0.03331594	      0.05888667	      0.05856424	      0.05562265	      0.05617567	      0.05151802	      0.04674314	      0.01525851	      0.01651186	      0.06550154	      0.04489616	      0.05462981	      0.03854579	      0.16364677	      0.11470035	     -0.01899700	     -0.02055839	     -0.05287678	      0.00354550	     -0.08523965	     -0.10697885	      0.00000079	     -0.32847694	      0.00000060	     -0.00000086	    410.05999211	    310.55415901	    105.78688225	    -50.12692633	     10.23718838	    164.27227210	   -410.05999211	   -310.55415901	   -105.78688225	     10.04107484	    -13.10468613	     -0.47013587	    751.15214323	    510.06079439	    -44.40645292	     27.70842668	    -14.31429707	    298.81250941	   -751.15214323	   -510.06079439	     44.40645292	     -9.41031547	     13.39705139	      0.17138860	   -129.00582849	   -284.70276426	    104.97639652	     -6.42607599	      4.18184940	      3.52559844	    129.00582849	    284.70276426	   -104.97639652	     47.56675216	     -2.56743128	     51.41071587	      0.00000000	      0.00000000	      0.00000000	      0.00000000	      0.00000000	      0.00000000	      0.00000000	      0.00000000	      0.00000000	      0.00000000	      0.00000000	      0.00000000	    525.15135652	    909.04537253	      0.00000000	    329.72444797
      0.16839337	      0.01170978	      0.01522230	     54.90246575	     31.92542602	     21.62902013	    797.32059295	    514.43454563	      0.00000000	      0.00000000	      0.00000000	    -12.65022750	      0.00000000	      0.00000000	      0.00000000	      0.00000000	      0.00000001	      0.00000000	      0.03270680	      0.02603255	      0.03620048	      0.03332698	      0.05889905	      0.05856655	      0.05561764	      0.05617138	      0.05150756	      0.04672773	      0.01525851	      0.01651186	      0.06550154	      0.04489616	      0.05487075	      0.03886279	      0.16417860	      0.11506984	     -0.01879069	     -0.02051983	     -0.05296221	      0.00346888	     -0.08542541	     -0.10727328	      0.00000079	     -0.32847694	      0.00000060	     -0.00000086	    411.35210335	    312.44619113	    107.30175487	    -50.78912595	     10.28155702	    164.76372685	   -411.35210335	   -312.44619113	   -107.30175487	     10.11694544	    -13.18204255	     -0.39705199	    752.13985227	    496.82337218	    -47.68879238	     28.81262421	    -14.30778791	    299.31569633	   -752.13985227	   -496.82337218	     47.68879238	     -9.28082270	     13.45597517	     -0.13752237	   -129.23342226	   -284.16491734	    104.61534023	     -6.40179118	      4.18366466	      3.53612373	    129.23342226	    284.16491734	   -104.61534023	     47.40392287	     -2.57005993	     51.49763749	      0.00000000	      0.00000000	      0.00000000	      0.00000000	      0.00000000	      0.00000000	      0.00000000	      0.00000000	      0.00000000	      0.00000000	      0.00000000	      0.00000000	    527.58586209	    902.67493675	      0.00000000	    329.23448648
